<svg width="60" height="48" viewBox="0 0 60 48" fill="none" xmlns="http://www.w3.org/2000/svg">
<path d="M42 41.2597V47.6073H0V41.2597C0 41.2597 0 28.5644 21 28.5644C42 28.5644 42 41.2597 42 41.2597ZM31.5 11.1085C31.5 8.91144 30.8842 6.76375 29.7304 4.93699C28.5767 3.11024 26.9368 1.68645 25.0182 0.845689C23.0996 0.00492549 20.9883 -0.215057 18.9515 0.213561C16.9147 0.642179 15.0438 1.70015 13.5754 3.25368C12.1069 4.8072 11.1069 6.78652 10.7018 8.94133C10.2966 11.0961 10.5045 13.3296 11.2993 15.3594C12.094 17.3892 13.4398 19.1241 15.1665 20.3447C16.8932 21.5653 18.9233 22.2168 21 22.2168C23.7848 22.2168 26.4555 21.0465 28.4246 18.9632C30.3938 16.88 31.5 14.0546 31.5 11.1085ZM41.82 28.5644C43.6642 30.0744 45.1733 31.9935 46.241 34.1869C47.3087 36.3802 47.9091 38.7944 48 41.2597V47.6073H60V41.2597C60 41.2597 60 29.7387 41.82 28.5644ZM39 0.000116785C36.9353 -0.010043 34.9164 0.642912 33.21 1.87267C35.0323 4.5664 36.0122 7.79591 36.0122 11.1085C36.0122 14.421 35.0323 17.6505 33.21 20.3442C34.9164 21.574 36.9353 22.227 39 22.2168C41.7848 22.2168 44.4555 21.0465 46.4246 18.9632C48.3938 16.88 49.5 14.0546 49.5 11.1085C49.5 8.16234 48.3938 5.33689 46.4246 3.25368C44.4555 1.17046 41.7848 0.000116785 39 0.000116785Z" fill="white"/>
</svg>
