<svg width="70" height="72" viewBox="0 0 70 72" fill="none" xmlns="http://www.w3.org/2000/svg">
<path d="M60.6667 34.6245C62.125 35.5776 63.4253 36.6585 64.5677 37.8673C65.7101 39.0761 66.6944 40.4011 67.5208 41.8423C68.3472 43.2836 68.9549 44.8062 69.3438 46.4101C69.7326 48.0141 69.9514 49.6529 70 51.3266C70 54.0929 69.4531 56.6964 68.3594 59.1372C67.2656 61.578 65.7587 63.705 63.8385 65.5181C61.9184 67.3313 59.6944 68.7609 57.1667 69.807C54.6389 70.853 51.9167 71.3877 49 71.4109C46.7882 71.4109 44.6493 71.0971 42.5833 70.4695C40.5174 69.8419 38.6215 68.9353 36.8958 67.7497C35.1701 66.5642 33.6389 65.1462 32.3021 63.4958C30.9653 61.8453 29.9323 60.0205 29.2031 58.0214H0V4.46318H9.33333V0H14V4.46318H46.6667V0H51.3333V4.46318H60.6667V34.6245ZM4.66667 8.92637V17.8527H56V8.92637H51.3333V13.3896H46.6667V8.92637H14V13.3896H9.33333V8.92637H4.66667ZM28.1094 53.5582C28.0365 52.8376 28 52.0937 28 51.3266C28 49.3275 28.2917 47.3865 28.875 45.5035C29.4583 43.6206 30.3455 41.8423 31.5365 40.1687H28V35.7055H32.6667V38.7042C33.6632 37.5186 34.7691 36.4726 35.9844 35.566C37.1996 34.6594 38.5121 33.8807 39.9219 33.2298C41.3316 32.5789 42.8021 32.0908 44.3333 31.7653C45.8646 31.4399 47.4201 31.2655 49 31.2423C51.4306 31.2423 53.7639 31.6258 56 32.3929V22.3159H4.66667V53.5582H28.1094ZM49 66.9478C51.2604 66.9478 53.375 66.5409 55.3438 65.7273C57.3125 64.9137 59.0382 63.798 60.5208 62.38C62.0035 60.962 63.1701 59.3115 64.0208 57.4286C64.8715 55.5457 65.309 53.5117 65.3333 51.3266C65.3333 49.1648 64.908 47.1424 64.0573 45.2595C63.2066 43.3766 62.0399 41.7261 60.5573 40.3081C59.0746 38.8901 57.349 37.7743 55.3802 36.9607C53.4115 36.1471 51.2847 35.7287 49 35.7055C46.7396 35.7055 44.625 36.1123 42.6562 36.9259C40.6875 37.7395 38.9618 38.8553 37.4792 40.2733C35.9965 41.6912 34.8299 43.3417 33.9792 45.2246C33.1285 47.1075 32.691 49.1415 32.6667 51.3266C32.6667 53.4885 33.092 55.5108 33.9427 57.3937C34.7934 59.2767 35.9601 60.9271 37.4427 62.3451C38.9253 63.7631 40.651 64.8789 42.6198 65.6925C44.5885 66.5061 46.7153 66.9245 49 66.9478ZM51.3333 49.095H58.3333V53.5582H46.6667V40.1687H51.3333V49.095ZM9.33333 35.7055H14V40.1687H9.33333V35.7055ZM18.6667 35.7055H23.3333V40.1687H18.6667V35.7055ZM18.6667 26.7791H23.3333V31.2423H18.6667V26.7791ZM9.33333 44.6318H14V49.095H9.33333V44.6318ZM18.6667 44.6318H23.3333V49.095H18.6667V44.6318ZM32.6667 31.2423H28V26.7791H32.6667V31.2423ZM42 31.2423H37.3333V26.7791H42V31.2423ZM51.3333 31.2423H46.6667V26.7791H51.3333V31.2423Z" fill="white"/>
</svg>
