<svg width="364" height="324" viewBox="0 0 364 324" fill="none" xmlns="http://www.w3.org/2000/svg">
<g clip-path="url(#clip0_488_7)">
<rect width="561" height="10.8479" rx="5.42397" transform="matrix(-0.919485 -0.393125 -0.393125 0.919485 292 220.543)" fill="#EDEDED"/>
<rect width="561" height="10.8479" rx="5.42397" transform="matrix(-0.919485 -0.393125 -0.393125 0.919485 226.83 229.543)" fill="#EDEDED"/>
</g>
<path d="M320.5 324C321.429 306.328 325.147 294.296 332.026 287.716C338.904 281.136 349.5 277.564 364 277C349.5 276.436 338.904 272.864 332.026 266.284C325.147 259.704 321.429 247.672 320.5 230C319.571 247.672 315.853 259.704 309.16 266.284C302.468 272.864 291.872 276.436 277 277C291.872 277.564 302.468 281.136 309.16 287.716C315.853 294.296 319.571 306.328 320.5 324Z" fill="#6DCCDE"/>
<defs>
<clipPath id="clip0_488_7">
<rect width="292" height="240" fill="white" transform="matrix(-1 0 0 1 292 0)"/>
</clipPath>
</defs>
</svg>
