<svg width="363" height="324" viewBox="0 0 363 324" fill="none" xmlns="http://www.w3.org/2000/svg">
<g clip-path="url(#clip0_488_4)">
<rect x="72" y="220.543" width="561" height="10.8479" rx="5.42397" transform="rotate(-23.1491 72 220.543)" fill="#EDEDED"/>
<rect x="137.17" y="229.543" width="561" height="10.8479" rx="5.42397" transform="rotate(-23.1491 137.17 229.543)" fill="#EDEDED"/>
</g>
<path d="M43.5 324C42.5705 306.328 38.8525 294.296 31.9743 287.716C25.0961 281.136 14.5 277.564 0 277C14.5 276.436 25.0961 272.864 31.9743 266.284C38.8525 259.704 42.5705 247.672 43.5 230C44.4295 247.672 48.1474 259.704 54.8397 266.284C61.532 272.864 72.1282 276.436 87 277C72.1282 277.564 61.532 281.136 54.8397 287.716C48.1474 294.296 44.4295 306.328 43.5 324Z" fill="#6DCCDE"/>
<defs>
<clipPath id="clip0_488_4">
<rect width="292" height="240" fill="white" transform="translate(72)"/>
</clipPath>
</defs>
</svg>
